<svg xmlns="http://www.w3.org/2000/svg" viewBox="0 0 450 53" enable-background="new 0 0 450 53"><g fill="#fff"><path d="m70.8 17.1h-5.8c-2.6 0-4 1.3-4 3.7v10.4c0 2.4 1.4 3.7 4 3.7h5.9c2.6 0 4-1.3 4-3.7v-2.8h-3.9v2.6c0 .2 0 .5-.6.5h-5c-.5 0-.6-.2-.6-.5v-10c0-.3.1-.5.6-.5h5c.6 0 .6.3.6.5v2.6h3.9v-2.8c0-2.4-1.4-3.7-4.1-3.7"/><path d="m88.9 17.1h-6.2c-2.6 0-4 1.3-4 3.7v10.4c0 2.4 1.4 3.7 4 3.7h6.2c2.6 0 4-1.3 4-3.7v-10.4c.1-2.4-1.4-3.7-4-3.7m.2 3.9v10c0 .2 0 .5-.6.5h-5.3c-.5 0-.6-.2-.6-.5v-10c0-.3.1-.5.6-.5h5.3c.5 0 .6.2.6.5"/><path d="m100.7 17.1h-3.9v17.8h12.1v-3.4h-8.2z"/><path d="m122.2 17.1h-6.2c-2.6 0-4 1.3-4 3.7v10.4c0 2.4 1.4 3.7 4 3.7h6.2c2.6 0 4-1.3 4-3.7v-10.4c.1-2.4-1.3-3.7-4-3.7m.2 3.9v10c0 .2 0 .5-.6.5h-5.3c-.5 0-.6-.2-.6-.5v-10c0-.3.1-.5.6-.5h5.3c.5 0 .6.2.6.5"/><path d="m143.9 24.6v-3.8c0-2.4-1.4-3.7-4-3.7h-9.8v17.7h3.9v-6.6h3.1l3.4 6.6h4.3l-3.5-6.7c1.7-.4 2.6-1.6 2.6-3.5m-9.9-4.2h5.5c.5 0 .6.2.6.5v3.6c0 .3-.1.5-.6.5h-5.5v-4.6"/><path d="m153.7 17.1l-6.5 17.7h4.1l1.4-4.2h6.1l1.4 4.2h4.3l-6.5-17.7h-4.3m4 10.2h-3.9l1.9-5.8 2 5.8"/><path d="m177.5 17.1h-10v17.7h10c2.6 0 4-1.3 4-3.7v-10.3c.1-2.4-1.3-3.7-4-3.7m-6.1 3.4h5.7c.5 0 .6.2.6.5v10c0 .3-.1.5-.6.5h-5.7v-11"/><path d="m195.6 17.1h-6.2c-2.6 0-4 1.3-4 3.7v10.4c0 2.4 1.4 3.7 4 3.7h6.2c2.6 0 4-1.3 4-3.7v-10.4c0-2.4-1.4-3.7-4-3.7m.1 3.9v10c0 .3-.1.5-.6.5h-5.3c-.5 0-.6-.2-.6-.5v-10c0-.3.1-.5.6-.5h5.3c.6 0 .6.2.6.5"/><path d="m219.2 24.7l-4.9-1c-.9-.2-.9-.3-.9-.8v-2c0-.3 0-.5.6-.5h4.5c.5 0 .6.2.6.5v2.1h3.8v-2.2c0-2.4-1.4-3.7-4-3.7h-5.4c-2.6 0-4 1.3-4 3.7v2.5c0 2.6 2 3.3 4.1 3.8l4.9 1c.8.2.9.3.9.8v2.2c0 .3-.1.5-.6.5h-4.9c-.5 0-.6-.2-.6-.5v-2.2h-3.8v2.4c0 2.4 1.4 3.7 4 3.7h5.7c2.6 0 4-1.3 4-3.7v-2.7c.1-2.7-1.8-3.5-4-3.9"/><path d="m240.3 17.1h-14.3v3.3h5.2v14.5h3.9v-14.5h5.2z"/><path d="m246.2 17.1l-6.5 17.7h4.1l1.4-4.2h6.1l1.4 4.2h4.3l-6.6-17.7h-4.2m4 10.2h-3.9l1.9-5.8 2 5.8"/><path d="m256.4 20.4h5.2v14.5h3.9v-14.5h5.2v-3.3h-14.3z"/><path d="m273.4 34.9h12.9v-3.4h-9v-4.1h7.4v-3.3h-7.4v-3.6h9v-3.4h-12.9z"/><path d="m306.8 31c0 .3-.1.5-.6.5h-5.2c-.5 0-.6-.2-.6-.5v-13.9h-3.9v14.1c0 2.4 1.4 3.7 4 3.7h6.1c2.6 0 4-1.3 4-3.7v-14.1h-3.9v13.9z"/><path d="m325.7 28.5l-7.4-11.4h-3.8v17.8h3.6v-11.7l7.7 11.7h3.6v-17.8h-3.7z"/><path d="m333.2 17.1h3.9v17.7h-3.9z"/><path d="m348.5 30.1l-4.1-13h-4.2l6.1 17.8h4.2l6.2-17.8h-4.2z"/><path d="m359.7 34.9h12.9v-3.4h-9v-4.1h7.4v-3.3h-7.4v-3.6h9v-3.4h-12.9z"/><path d="m390 24.6v-3.8c0-2.4-1.4-3.7-4-3.7h-9.8v17.7h3.9v-6.6h3.1l3.4 6.6h4.3l-3.5-6.7c1.7-.4 2.6-1.6 2.6-3.5m-9.9-4.2h5.5c.5 0 .6.2.6.5v3.6c0 .3-.1.5-.6.5h-5.5v-4.6"/><path d="m403.3 24.7l-4.9-1c-.9-.2-.9-.3-.9-.8v-2c0-.3 0-.5.6-.5h4.5c.5 0 .6.2.6.5v2.1h3.8v-2.2c0-2.4-1.4-3.7-4-3.7h-5.4c-2.6 0-4 1.3-4 3.7v2.5c0 2.6 2 3.3 4.1 3.8l4.9 1c.8.2.9.3.9.8v2.2c0 .3-.1.5-.6.5h-4.9c-.5 0-.6-.2-.6-.5v-2.2h-3.8v2.4c0 2.4 1.4 3.7 4 3.7h5.7c2.6 0 4-1.3 4-3.7v-2.7c.1-2.7-1.8-3.5-4-3.9"/><path d="m411.1 17.1h3.9v17.7h-3.9z"/><path d="m417.7 20.4h5.1v14.5h3.9v-14.5h5.2v-3.3h-14.2z"/><path d="m445.8 17.1l-4.2 7.7-4.1-7.7h-4.3l6.5 11.5v6.3h3.9v-6.3l6.4-11.5z"/></g><g fill="#cbc46e"><path d="m26.5 51.8c-14 0-25.3-11.4-25.3-25.3 0-14 11.4-25.3 25.3-25.3 14 0 25.3 11.4 25.3 25.3 0 13.9-11.4 25.3-25.3 25.3"/><path d="M26.5,52.9C11.9,52.9,0,41,0,26.4C0,11.9,11.9,0,26.5,0C41,0,52.9,11.9,52.9,26.4C52.9,41,41,52.9,26.5,52.9
				z"/></g><path d="m26.5 1.1c-14 0-25.4 11.4-25.4 25.3 0 14 11.4 25.4 25.4 25.4 14 0 25.3-11.4 25.3-25.4 0-13.9-11.4-25.3-25.3-25.3" fill="#004c23"/><g fill="#fff"><path d="m22.5 32.4c.7-1.1 1.4-3.4 1-4.4-.7-.3-1.5-.8-2-1.6-.5-.7-.8-1.5-1.7-1.8-.6-.2-1.2-.1-1.7.2-.8.4-1 1.5-1.1 2.3-.1 1.7.3 4.3 1 5.9.4 1.2 1.5 3.2 2.8 5.1-.4-2.9 1.3-4.9 1.7-5.7m-2.3-3.8c-.3-.6-1.2-.5-1.6-.7-.7-.4-.6-1.4 0-1.9.8-.7 2.9 1.6 2.4 3.5-.2 0-.3-.1-.8-.9"/><path d="m15.8 21.4c-.9.2-1.1 1.5-.4 2.3-.6-.1-1.6-.9-3.8-.2-.8.2-1.7.5-1.8 1.5-.1.7.9 1.5 1.5 2 .7.5 1.7.5 2.2 1.3.5.7.9 1.7 1 2.7.2 1.8.2 4.1 1.4 5.6.2-.9-.4-2.9-.4-5.5 0-1-.4-2.1-.9-2.8 1-.1 1.1.1 1.1-.3.1-.3-.1-.7-.3-1-.8-.9-1.8-.4-2.8-.7-.6-.2-1.6-.5-1.7-1.4 0-.6 1.9-.7 1.9-.7 1.5.1 1.3 1 2.4 1.1.9.1 1.2-.8 1.5-1.4.3-.9.8-2.8-.9-2.5"/><path d="m26.5 30.8c0 0 0 0 0 0-.9 0-1.3.7-2.1 1.5-1.3 1.4-4 5-2.1 6.7.9.8 2 1.3 3.6.8.4-.3.2-1.1 0-1.4-.7-1-1.9-.6-2.2-1.1-.3-.5-.1-.8.1-1.1.3-.3.7-.3 1.1-.2.7.2 1.1.4 1.5.8 0 0 0 0 0 0 .4-.4.9-.7 1.5-.8.4-.1.8-.2 1.1.2.2.2.4.6.1 1.1-.3.5-1.5.1-2.2 1.1-.2.4-.4 1.2-.1 1.4 1.6.5 2.7 0 3.6-.8 2-1.7-.7-5.3-2.1-6.7-.5-.7-1-1.4-1.8-1.5"/><path d="m41.6 23.4c-2.2-.7-3.2.2-3.8.2.7-.8.5-2.1-.4-2.3-1.7-.3-1.3 1.6-.8 2.5.3.5.6 1.5 1.5 1.4 1-.1.9-.9 2.4-1.1 0 0 1.9.1 1.9.7-.1.9-1 1.2-1.7 1.4-.9.3-2-.2-2.8.7-.2.3-.4.7-.3 1 .1.3.1.2 1.2.3-.6.7-.9 1.8-.9 2.8 0 2.6-.7 4.6-.4 5.5 1.3-1.5 1.2-3.8 1.4-5.6.1-.9.5-2 .9-2.7.5-.8 1.5-.8 2.2-1.3.6-.5 1.6-1.3 1.5-2-.3-.9-1.2-1.2-1.9-1.5"/><path d="m26.4 2.5c-13.2 0-24 10.8-24 24 0 13.2 10.8 24 24 24 13.2 0 23.9-10.8 23.9-24 .1-13.3-10.7-24-23.9-24m15.1 40.5c-.7.3-1.5.4-2.2.1-.6-.3-1-.8-1.1-1.5-.1-1 .4-2.1.9-2.8.6-1.1 2.1-3 3.8-4.2 2.4-1.8 4.1-2.3 3.5-2.7-.4-.3-2.7 1-3.2 1.2-2.6 1.3-6.1 5.1-6.5 8-.3 2 1.8 3.5 3.5 3.3-5.6 4.6-11.7 4.7-13.7 4.8-2 0-8.2-.2-13.7-4.8 1.7.2 3.8-1.3 3.5-3.3-.4-2.8-4-6.6-6.5-8-.5-.2-2.7-1.5-3.2-1.2-.6.4 1.1.9 3.5 2.7 1.7 1.3 3.2 3.1 3.8 4.2.5.8 1 1.9.9 2.8-.1.7-.5 1.2-1.1 1.5-.7.3-1.5.2-2.2-.1-1.1-.4-2.1-1.3-2.9-2.4-1.5-2-3-4.4-3.7-6.9.6 1.4 4.7 7.4 6.5 7.5 1.8.1-1.8-4.8-4.3-6.9-.6-.5-1.3-1.1-1.4-2-.1-.7.2-1.1.9-1.1 1 0 3.6 1.3 3.6 1.3-4.5-8.1 2.4-12.2-.5-14-1-.6-3.1 0-4.3.2 10.7-6.3 12.5 0 15.8 2.9.5.5 2.8 0 3.2-.5.6-.7 1.7-3.2.4-4.8-1.8-2.3-9.2-9-16.1-3.6 3.6-5.2 11.1-9 17.9-8.8 6.7-.2 14.2 3.6 17.8 8.8-6.9-5.4-14.3 1.3-16.2 3.6-1.3 1.6-.2 4.1.4 4.8.4.5 2.7 1 3.2.5 3.2-2.9 5.1-9.2 15.8-2.9-1.2-.2-3.3-.8-4.3-.2-2.9 1.8 4 5.9-.5 14 0 .1 2.6-1.3 3.7-1.3.7 0 1 .5.9 1.1-.1.9-.8 1.5-1.4 2-2.5 2.1-6.2 7-4.3 6.9 1.8-.1 5.9-6 6.5-7.5-.7 2.5-2.2 4.8-3.7 6.9-.9 1.1-1.9 2-3 2.4"/><path d="m34.8 24.8c-.5-.3-1.1-.4-1.7-.2-.9.2-1.1 1-1.7 1.8-.5.8-1.3 1.3-2 1.6-.4 1 .3 3.3 1 4.4.4.8 2 2.8 1.7 5.7 1.3-1.9 2.3-3.9 2.7-5.1.8-1.6 1.1-4.2 1-5.9 0-.8-.2-1.8-1-2.3m-.5 3.1c-.4.2-1.3.1-1.6.7-.5.8-.6.9-.8.8-.5-1.8 1.6-4.2 2.4-3.5.7.6.7 1.5 0 2"/><path d="m29.1 40.3c-.9.1-1.8.3-2.6.3-.8 0-1.7-.2-2.6-.3-.1 0-.2.1-.2.1-.5 1.1 2.4 1.7 2.8 1.7.4 0 3.4-.6 2.8-1.7 0 0-.1-.1-.2-.1"/></g></svg>